<?xml version="1.0" encoding="UTF-8"?>
<svg width="200px" height="141px" viewBox="0 0 200 141" version="1.1" xmlns="http://www.w3.org/2000/svg" xmlns:xlink="http://www.w3.org/1999/xlink">
    <title>icon-documentation</title>
    <defs>
        <path d="M164,65.9027169 L131.328366,107.451336 C130.835746,108.074195 129.931652,108.182823 129.305057,107.694438 L90.5492268,77.3228182 C89.9257872,76.8307695 89.8170242,75.9286526 90.3057068,75.3029815 L128.641084,26.5486641 C129.133704,25.9258047 130.037797,25.8171771 130.664393,26.305562 L162.198332,51.0184105 L162.775741,55.8073321 L163.394054,60.9248214 L164,65.9027169 Z" id="path-1"></path>
        <filter x="-51.4%" y="-26.8%" width="202.7%" height="192.7%" filterUnits="objectBoundingBox" id="filter-2">
            <feOffset dx="0" dy="16" in="SourceAlpha" result="shadowOffsetOuter1"></feOffset>
            <feGaussianBlur stdDeviation="10" in="shadowOffsetOuter1" result="shadowBlurOuter1"></feGaussianBlur>
            <feColorMatrix values="0 0 0 0 0   0 0 0 0 0   0 0 0 0 0  0 0 0 0.0934819575 0" type="matrix" in="shadowBlurOuter1"></feColorMatrix>
        </filter>
        <path d="M79.8682506,74.9096716 L36.3896527,104.949358 C36.2551792,105.041034 36.0735715,105.004847 35.9826134,104.868253 L0.0498254295,50.5087025 C-0.040299367,50.3716348 -0.00479832306,50.1858378 0.129155596,50.0935229 L43.6105867,20.0509401 C43.7446551,19.9587991 43.9263867,19.9950943 44.0166816,20.1320449 L79.9494696,74.4915955 C79.993474,74.5578776 80.009654,74.6394276 79.9943897,74.718001 C79.9791254,74.7965743 79.9336907,74.8656131 79.8682506,74.9096716 Z" id="path-3"></path>
        <filter x="-47.5%" y="-25.9%" width="195.0%" height="189.4%" filterUnits="objectBoundingBox" id="filter-4">
            <feOffset dx="0" dy="16" in="SourceAlpha" result="shadowOffsetOuter1"></feOffset>
            <feGaussianBlur stdDeviation="10" in="shadowOffsetOuter1" result="shadowBlurOuter1"></feGaussianBlur>
            <feColorMatrix values="0 0 0 0 0   0 0 0 0 0   0 0 0 0 0  0 0 0 0.0934819575 0" type="matrix" in="shadowBlurOuter1"></feColorMatrix>
        </filter>
        <path d="M45.2230066,75.9946795 C45.0326155,76.0279762 44.8510002,75.9015566 44.8162967,75.711575 L33.0053251,10.0101505 C32.9719998,9.81992276 33.0985279,9.63846337 33.2886727,9.60378967 L86.7777733,0.00519961151 C86.9677288,-0.0275892798 87.1488485,0.098056522 87.1844832,0.287341153 L98.9944911,65.9897286 C99.0284144,66.1797643 98.902169,66.3614361 98.7121072,66.3960895 L45.2230066,75.9946795 Z" id="path-5"></path>
        <filter x="-57.6%" y="-28.9%" width="215.2%" height="200.0%" filterUnits="objectBoundingBox" id="filter-6">
            <feOffset dx="0" dy="16" in="SourceAlpha" result="shadowOffsetOuter1"></feOffset>
            <feGaussianBlur stdDeviation="10" in="shadowOffsetOuter1" result="shadowBlurOuter1"></feGaussianBlur>
            <feColorMatrix values="0 0 0 0 0   0 0 0 0 0   0 0 0 0 0  0 0 0 0.0934819575 0" type="matrix" in="shadowBlurOuter1"></feColorMatrix>
        </filter>
        <path d="M122.737745,83.9829761 L71.2396365,67.2578723 C71.0567086,67.1977617 70.9574131,67.0027284 71.0175666,66.8216892 L91.820999,4.23749122 C91.8818374,4.05665374 92.078875,3.95820664 92.2622548,4.01702394 L143.760364,20.7421277 C143.943291,20.8022383 144.042587,20.9972716 143.982433,21.1783108 L123.179001,83.7625088 C123.118163,83.9433463 122.921125,84.0417934 122.737745,83.9829761 L122.737745,83.9829761 Z" id="path-7"></path>
        <filter x="-52.1%" y="-27.5%" width="204.1%" height="195.0%" filterUnits="objectBoundingBox" id="filter-8">
            <feOffset dx="0" dy="16" in="SourceAlpha" result="shadowOffsetOuter1"></feOffset>
            <feGaussianBlur stdDeviation="10" in="shadowOffsetOuter1" result="shadowBlurOuter1"></feGaussianBlur>
            <feColorMatrix values="0 0 0 0 0   0 0 0 0 0   0 0 0 0 0  0 0 0 0.0934819575 0" type="matrix" in="shadowBlurOuter1"></feColorMatrix>
        </filter>
        <linearGradient x1="50%" y1="0%" x2="50%" y2="100%" id="linearGradient-9">
            <stop stop-color="#7A62E4" offset="0%"></stop>
            <stop stop-color="#656EE4" offset="100%"></stop>
        </linearGradient>
        <linearGradient x1="6.16024702%" y1="4.93510655%" x2="91.178684%" y2="95.0648934%" id="linearGradient-10">
            <stop stop-color="#798CFB" offset="0%"></stop>
            <stop stop-color="#5760D5" offset="100%"></stop>
        </linearGradient>
        <path d="M124,52.5241774 L124,113.139129 C124,114.722208 122.668841,116 121.025481,116 L47.9821801,116 C46.3388207,116 45,114.722208 45,113.139129 L45,43.8695616 C45,42.2864821 46.3407361,41 47.9821801,41 L64.3908743,41 C65.4110299,40.9941675 66.3646324,41.5070182 66.9239078,42.362324 L70.7076565,48.2856717 C71.2634202,49.1452941 72.2188655,49.6605842 73.24069,49.6517858 L121.028354,49.6517858 C122.668841,49.6585059 124,50.9410979 124,52.5241774 Z" id="path-11"></path>
        <filter x="-48.1%" y="-29.3%" width="196.2%" height="201.3%" filterUnits="objectBoundingBox" id="filter-12">
            <feOffset dx="0" dy="16" in="SourceAlpha" result="shadowOffsetOuter1"></feOffset>
            <feGaussianBlur stdDeviation="10" in="shadowOffsetOuter1" result="shadowBlurOuter1"></feGaussianBlur>
            <feColorMatrix values="0 0 0 0 0.411764706   0 0 0 0 0.423529412   0 0 0 0 0.894117647  0 0 0 0.302194022 0" type="matrix" in="shadowBlurOuter1"></feColorMatrix>
        </filter>
        <linearGradient x1="6.16024702%" y1="27.2920605%" x2="91.178684%" y2="72.7079395%" id="linearGradient-13">
            <stop stop-color="#798CFB" offset="0%"></stop>
            <stop stop-color="#5760D5" offset="100%"></stop>
        </linearGradient>
    </defs>
    <g id="icon-documentation" stroke="none" stroke-width="1" fill="none" fill-rule="evenodd">
        <g id="28-[Converted]" transform="translate(17.000000, 0.000000)" fill-rule="nonzero">
            <g id="Path">
                <use fill="black" fill-opacity="1" filter="url(#filter-2)" xlink:href="#path-1"></use>
                <use fill="#FFFFFF" xlink:href="#path-1"></use>
            </g>
            <path d="M157,60 C157.031448,60.2599348 156.460309,61.4581471 164.101192,68 L165,66.909047 L157,60 Z" id="Path" fill="#CECECE"></path>
            <path d="M157.473962,58.1997959 C156.716664,59.1741701 156.88483,60.5818179 157.85001,61.3475376 L165,67 L163.086308,51 L157.473962,58.1997959 Z" id="Path" fill="#EDEDED"></path>
            <path d="M113.09359,81.9191068 C113.249875,81.6863277 113.09359,81.3819243 112.781021,81.4060975 C112.359113,81.4466957 111.93364,81.4442938 111.512303,81.3989351 L110.937642,81.2744878 C110.530591,81.2273351 110.451316,81.0055981 110.699818,80.6092768 C111.142462,80.5555585 111.058981,79.9467516 110.617307,79.977192 C110.071768,80.0147948 109.343735,80.0720942 108.896237,79.700543 C108.757492,79.5730771 108.640927,79.4266094 108.550664,79.2663204 C108.707555,79.2606313 108.863381,79.2399282 109.015635,79.2045444 C109.141827,79.1741041 109.20104,79.0541333 109.230162,78.9520687 C109.314614,78.6637807 109.305877,78.4318969 109.327233,78.2098615 C111.309424,77.8875519 113.36636,77.1435541 114.860284,76.0861999 C115.151497,75.8811752 114.947648,75.5060427 114.613723,75.5141005 C113.053791,75.5543892 111.448236,75.8382006 110.045559,76.4989351 C109.550496,76.7308189 109.06417,77.0173163 108.814698,77.4954087 C108.791768,77.5451383 108.771679,77.5959419 108.754514,77.6476104 C108.297277,77.7099402 107.836259,77.7458225 107.374163,77.7550469 C106.7579,77.771819 106.142718,77.697154 105.552139,77.5339068 C105.127939,77.4094595 104.484357,77.228608 104.484357,76.7612593 C105.584173,76.8624286 106.65972,76.6950067 106.866481,75.7549373 C107.176138,74.3403567 104.715387,75.1900004 103.960174,76.0620267 C103.45154,75.9747832 102.953435,75.841638 102.473045,75.6645116 C102.060493,75.5167864 101.793547,76.1032107 102.20707,76.2518312 C102.695572,76.4220104 103.198065,76.5558384 103.70973,76.6520321 C103.554417,78.1740493 106.517026,78.4238392 107.607134,78.3889223 C107.931351,78.3781787 108.265275,78.3522148 108.602112,78.3146121 C108.562313,78.6870586 108.602112,78.6485605 108.010949,78.6405028 C107.711,78.6405028 107.516858,78.900141 107.685761,79.1454544 C107.99833,79.5984783 108.255568,80.1490904 108.784606,80.4132051 C108.951334,80.4917332 109.129537,80.5475253 109.313643,80.5788364 C109.269327,80.6561426 109.261941,80.7469836 109.293258,80.8295216 C109.714546,81.7982407 110.992972,82.0435541 112.091817,82.0614602 C111.325088,82.8005446 110.294722,83.2593334 109.190363,83.3533842 C107.509092,83.4751455 106.286967,82.3945134 105.205595,81.360437 C104.901763,81.0694631 104.343604,81.4445956 104.650349,81.7382554 C105.829762,82.8663387 107.132456,84.0176999 108.943802,83.9997938 C110.527031,83.9800971 112.252955,83.1653703 113.09359,81.9191068 Z M105.619118,75.6895801 C106.298616,75.6591398 105.545344,76.0602361 105.283252,76.1058966 C105.114695,76.1325817 104.94348,76.1421887 104.772658,76.1345463 C104.913412,75.9707056 105.427888,75.6985332 105.618147,75.6868942 L105.619118,75.6895801 Z M109.858212,77.3297774 C110.270764,76.993143 110.993943,76.7925949 111.516185,76.6323354 C112.097871,76.4570018 112.695733,76.3311343 113.302293,76.2563077 C112.167858,76.8299157 110.948259,77.246798 109.682513,77.4936181 C109.737512,77.4361406 109.79584,77.3814473 109.857241,77.3297774 L109.858212,77.3297774 Z" id="Shape" fill="#4684AF"></path>
            <path d="M134.7083,47.5874337 L154.249953,47.5874337 C155.008722,47.5874337 155.623826,48.2025375 155.623826,48.9613066 C155.623826,49.7200756 155.008722,50.3351794 154.249953,50.3351794 L134.7083,50.3351794 C133.949531,50.3351794 133.334427,49.7200756 133.334427,48.9613066 C133.334427,48.2025375 133.949531,47.5874337 134.7083,47.5874337 Z" id="Rectangle" fill="#D2D4D8" transform="translate(144.479126, 48.961307) rotate(38.130000) translate(-144.479126, -48.961307) "></path>
            <path d="M153.269805,66.9622996 L124.065327,43.229886 C123.991244,43.1693196 123.978248,43.0582243 124.036224,42.9811043 L125.487623,41.0676232 C125.546133,40.9909361 125.653457,40.9774832 125.727958,41.0374973 L154.935253,64.7669954 C155.009036,64.8278522 155.021609,64.9389111 154.963417,65.0157771 L153.512018,66.9302301 C153.484147,66.967935 153.442868,66.9925386 153.397374,66.9985622 C153.35188,67.0045857 153.305947,66.991529 153.269805,66.9622996 Z" id="Path" fill="#D2D4D8"></path>
            <path d="M150.27103,71.9612987 L121.06533,48.2297166 C120.991243,48.1691548 120.978247,48.0580679 121.036226,47.9809538 L122.487686,46.067618 C122.546198,45.9909368 122.653526,45.9774849 122.728031,46.0374944 L151.93467,69.77102 C152.008757,69.8315818 152.021753,69.9426687 151.963774,70.0197828 L150.512314,71.9340903 C150.452626,72.0099622 150.345104,72.022087 150.27103,71.9612987 Z" id="Path" fill="#D2D4D8"></path>
            <path d="M146.272572,75.9629698 L117.065254,52.2298601 C116.991281,52.1696466 116.978268,52.0588579 117.036149,51.9820531 L118.488581,50.0676224 C118.547095,49.9909362 118.654426,49.9774834 118.728932,50.0374968 L147.934373,73.7706065 C147.970118,73.7993735 147.993293,73.8417161 147.998757,73.8882395 C148.004222,73.934763 147.991522,73.9816198 147.963478,74.0184135 L146.511984,75.9328442 C146.45354,76.0089134 146.346922,76.0223294 146.272572,75.9629698 L146.272572,75.9629698 Z" id="Path" fill="#D2D4D8"></path>
            <path d="M143.275055,79.9639748 L114.065337,56.2309182 C113.991243,56.1703502 113.978244,56.0592519 114.036229,55.9821298 L115.487842,54.067625 C115.546361,53.9909359 115.6537,53.9774826 115.728213,54.0374983 L144.935114,77.7715266 C145.008612,77.8320219 145.021575,77.9423834 144.964221,78.0193432 L143.51167,79.933848 C143.453707,80.008576 143.348788,80.0219347 143.275055,79.9639748 L143.275055,79.9639748 Z" id="Path" fill="#D2D4D8"></path>
            <path d="M140.271578,85.9628715 L111.065331,62.230191 C110.991243,62.1696264 110.978246,62.0585344 111.036226,61.9814167 L112.487713,60.0670206 C112.546507,59.9906468 112.653802,59.9776325 112.728063,60.0378674 L141.935249,83.7695761 C142.009036,83.830431 142.02161,83.9414866 141.963415,84.0183504 L140.511928,85.9317747 C140.453696,86.0087716 140.34633,86.0226628 140.271578,85.9628715 L140.271578,85.9628715 Z" id="Path" fill="#D2D4D8"></path>
            <path d="M137.271937,88.9621317 L108.064751,65.2298716 C107.990964,65.1690152 107.97839,65.057957 108.036585,64.9810915 L109.488072,63.0676227 C109.546586,62.9909362 109.653916,62.9774833 109.728422,63.037497 L138.934669,86.7697572 C139.008757,86.8303232 139.021754,86.9414177 138.963774,87.0185373 L137.512287,88.9329778 C137.453493,89.0093534 137.346198,89.022368 137.271937,88.9621317 Z" id="Path" fill="#D2D4D8"></path>
            <path d="M121.72276,96.0419895 C120.290745,94.9184533 119.676418,93.0427629 120.166241,91.2895563 C120.656064,89.5363497 122.153575,88.250894 123.960481,88.0325998 C125.767387,87.8143055 127.527846,88.7061623 128.420952,90.2922956 C129.314058,91.878429 129.163928,93.8464743 128.040568,95.2787282 C126.50543,97.2322004 123.678793,97.5736897 121.72276,96.0419895 Z M126.678818,89.7281224 C125.147526,88.524448 122.930576,88.790249 121.727105,90.3218077 C120.523634,91.8533665 120.789364,94.0707214 122.320633,95.2744265 C123.851901,96.4781315 126.068856,96.2123749 127.272358,94.6808402 C128.473945,93.148716 128.208389,90.9328223 126.678818,89.7281224 L126.678818,89.7281224 Z" id="Shape" fill="#D2D4D8"></path>
            <g id="Path">
                <use fill="black" fill-opacity="1" filter="url(#filter-4)" xlink:href="#path-3"></use>
                <use fill="#FFFFFF" xlink:href="#path-3"></use>
            </g>
            <path d="M23.9164756,42.7124148 L9.77132324,52.9649556 C9.68362687,53.0281979 9.56476767,53.0035077 9.50542284,52.909721 L8.03267167,50.5727965 C7.97371129,50.4787312 7.99672979,50.3512399 8.08416647,50.2875852 L22.2293188,40.0350444 C22.3170152,39.9718021 22.4358744,39.9964923 22.4952192,40.090279 L23.9670341,42.4272035 C24.0261809,42.5210084 24.0035914,42.6484401 23.9164756,42.7124148 Z" id="Path" fill="#D2D4D8"></path>
            <path d="M47.9118388,35.5753176 L12.8247285,58.9671138 C12.7341474,59.02657 12.6119548,59.0032246 12.5504218,58.9147064 L11.0340081,56.6964449 C10.9729915,56.6074415 10.996295,56.4865324 11.086165,56.4258323 L46.1742411,33.034989 C46.2170955,33.0050844 46.2704404,32.9936722 46.3220016,33.0033783 C46.3735629,33.0130843 46.4189002,33.0430728 46.4475819,33.0864435 L47.9668933,35.304705 C48.027338,35.3944502 48.0027046,35.5155321 47.9118388,35.5753176 Z" id="Path" fill="#D2D4D8"></path>
            <path d="M51.9131779,41.5748693 L16.8281744,64.9653124 C16.7852028,64.9951259 16.7317759,65.0063865 16.6802067,64.9964991 C16.6286374,64.9866118 16.5833748,64.9564295 16.55485,64.9129081 L15.0356299,62.6957277 C15.0050913,62.653269 14.9934909,62.6003328 15.0035244,62.5492209 C15.0135579,62.4981091 15.0443517,62.4532725 15.0887494,62.4251307 L50.1737529,39.0346876 C50.2167245,39.0048741 50.2701514,38.9936135 50.3217206,39.0035009 C50.3732899,39.0133882 50.4185525,39.0435705 50.4470773,39.0870919 L51.9662975,41.3042723 C52.0271182,41.3935177 52.0033734,41.5144763 51.9131779,41.5748693 Z" id="Path" fill="#D2D4D8"></path>
            <path d="M56.9143522,47.5735729 L21.8262094,70.9653105 C21.7832387,70.9951256 21.7298129,71.0063868 21.6782447,70.9964989 C21.6266766,70.986611 21.5814148,70.9564271 21.5528907,70.9129032 L20.0337018,68.6956002 C19.9728824,68.6063499 19.9966267,68.4853846 20.0868203,68.4249882 L55.1710999,45.0332506 C55.2615615,44.9732455 55.3841685,44.9966718 55.4453845,45.0856578 L56.9636075,47.3039138 C56.9941944,47.3458362 57.0062224,47.3982127 56.9969369,47.4490481 C56.9876515,47.4998834 56.957848,47.5448223 56.9143522,47.5735729 Z" id="Path" fill="#D2D4D8"></path>
            <path d="M59.9135476,52.5754285 L24.8286651,75.96675 C24.738202,76.0267541 24.6155929,76.0033281 24.5543758,75.9143437 L23.0351609,73.6961272 C23.0049407,73.6537326 22.9935264,73.6010231 23.0035486,73.5501463 C23.0135709,73.4992695 23.044165,73.4546146 23.0882803,73.4264729 L58.1731628,50.0351514 C58.2162009,50.005023 58.2698594,49.9935783 58.3216686,50.0034771 C58.3734779,50.0133759 58.4189263,50.0437561 58.4474521,50.0875577 L59.966667,52.3048214 C60.026931,52.3941809 60.0032684,52.5147255 59.9135476,52.5754285 Z" id="Path" fill="#D2D4D8"></path>
            <path d="M63.914633,58.620983 L38.7980238,75.9661369 C38.7090765,76.0272474 38.5885219,76.0033895 38.5283305,75.9127642 L37.0345717,73.6536438 C37.0048579,73.6104674 36.9936349,73.5567859 37.0034892,73.504971 C37.0133435,73.453156 37.043425,73.4076777 37.0868011,73.379017 L62.2034102,56.0338631 C62.2923575,55.9727526 62.4129122,55.9966105 62.4731035,56.0872358 L63.9668623,58.3453858 C64.0266637,58.4362803 64.0033169,58.559474 63.914633,58.620983 L63.914633,58.620983 Z" id="Path" fill="#D2D4D8"></path>
            <path d="M67.9126447,64.5714515 L32.8272341,87.9664481 C32.7370201,88.0266463 32.6144664,88.0036553 32.5529407,87.9149907 L31.0337029,85.6966064 C30.9728815,85.607351 30.9966266,85.4863787 31.0868231,85.4259788 L66.1722337,62.032888 C66.2628105,61.9734286 66.3849972,61.9967752 66.4465271,62.0852983 L67.9657649,64.3036826 C67.9953554,64.3459451 68.0064024,64.3982031 67.9964021,64.4486126 C67.9864018,64.4990221 67.9562011,64.5433146 67.9126447,64.5714515 L67.9126447,64.5714515 Z" id="Path" fill="#D2D4D8"></path>
            <path d="M71.9136208,70.5728567 L36.8280391,93.9667464 C36.7375742,94.026757 36.6149627,94.0033285 36.5537444,93.9143343 L35.035465,91.6968272 C35.0051536,91.6545462 34.9935861,91.6019149 35.0034243,91.5510435 C35.0132624,91.500172 35.0436588,91.4554412 35.0876197,91.4271433 L70.1732014,68.0332536 C70.2636663,67.973243 70.3862778,67.9966715 70.4474961,68.0856657 L71.9667413,70.3031728 C72.0269089,70.392245 72.0032213,70.5125032 71.9136208,70.5728567 Z" id="Path" fill="#D2D4D8"></path>
            <g id="Path">
                <use fill="black" fill-opacity="1" filter="url(#filter-6)" xlink:href="#path-5"></use>
                <use fill="#FFFFFF" xlink:href="#path-5"></use>
            </g>
            <polygon id="Rectangle" fill="#D2D4D8" transform="translate(56.159443, 46.892172) rotate(-10.180000) translate(-56.159443, -46.892172) " points="52.8806324 37.6150587 59.4382533 37.6150587 59.4382533 56.1692853 52.8806324 56.1692853"></polygon>
            <polygon id="Rectangle" fill="#D2D4D8" transform="translate(64.310438, 47.967938) rotate(-10.180000) translate(-64.310438, -47.967938) " points="61.0316271 41.191474 67.589248 41.191474 67.589248 54.7444014 61.0316271 54.7444014"></polygon>
            <polygon id="Rectangle" fill="#D2D4D8" transform="translate(72.284109, 48.574196) rotate(-10.180000) translate(-72.284109, -48.574196) " points="69.0052985 43.8017955 75.5629194 43.8017955 75.5629194 53.3465961 69.0052985 53.3465961"></polygon>
            <polygon id="Rectangle" fill="#D2D4D8" transform="translate(79.273447, 44.080202) rotate(-10.180000) translate(-79.273447, -44.080202) " points="75.9946363 36.1199759 82.5522572 36.1199759 82.5522572 52.0404275 75.9946363 52.0404275"></polygon>
            <path d="M66.8618068,16.5032399 L40.608497,20.9979067 C40.5173981,21.0119327 40.4312285,20.9540289 40.4144807,20.8675327 L40.0021962,18.6816878 C39.9874809,18.5948564 40.0482305,18.5127233 40.1389776,18.4967601 L66.3922874,14.0020933 C66.4833863,13.9880673 66.5695559,14.0459711 66.5863037,14.1324673 L66.9976182,16.3173876 C67.0129621,16.4042451 66.9526012,16.4868466 66.8618068,16.5032399 L66.8618068,16.5032399 Z" id="Path" fill="#D2D4D8"></path>
            <path d="M78.8638823,19.4626654 L40.5999047,25.9979405 C40.5100719,26.0117399 40.4250998,25.9547716 40.4085848,25.869673 L40.00203,23.7200551 C39.9880487,23.6347437 40.0477183,23.5542556 40.1369105,23.5381154 L78.4008882,17.0019305 C78.4905979,16.9886347 78.5752357,17.0453788 78.5922081,17.130198 L78.9978063,19.2807256 C79.0123638,19.3658592 78.9529805,19.4465332 78.8638823,19.4626654 L78.8638823,19.4626654 Z" id="Path" fill="#D2D4D8"></path>
            <path d="M85.8662657,22.5044509 L42.6007895,29.9980368 C42.5108243,30.0115582 42.4259456,29.9538513 42.4089249,29.8675929 L42.0021718,27.6805759 C41.9876197,27.593698 42.0476956,27.5115209 42.1374364,27.4955491 L85.398116,20.0019632 C85.4880811,19.9884418 85.5729599,20.0461487 85.5899806,20.1324071 L85.997693,22.3184989 C86.0124959,22.4044026 85.9545895,22.4863324 85.8662657,22.5044509 Z" id="Path" fill="#D2D4D8"></path>
            <path d="M49.4659433,58.8917082 L78.1185422,58.8917082 C78.8461036,58.8917082 79.4359086,59.4815132 79.4359086,60.2090746 C79.4359086,60.9366359 78.8461036,61.526441 78.1185422,61.526441 L49.4659433,61.526441 C48.7383819,61.526441 48.1485769,60.9366359 48.1485769,60.2090746 C48.1485769,59.4815132 48.7383819,58.8917082 49.4659433,58.8917082 Z" id="Rectangle" fill="#D2D4D8" transform="translate(63.792243, 60.209075) rotate(-10.180000) translate(-63.792243, -60.209075) "></path>
            <path d="M92.8662657,62.5044509 L49.6007895,69.9980368 C49.5108243,70.0115582 49.4259456,69.9538513 49.4089249,69.8675929 L49.0021718,67.6805759 C48.9876197,67.593698 49.0476956,67.5115209 49.1374364,67.4955491 L92.398116,60.0019632 C92.4880811,59.9884418 92.5729599,60.0461487 92.5899806,60.1324071 L92.997693,62.3184989 C93.0124959,62.4044026 92.9545895,62.4863324 92.8662657,62.5044509 Z" id="Path" fill="#D2D4D8"></path>
            <path d="M65.8576355,32.3745345 L43.606698,35.9980142 C43.515848,36.0113197 43.4299137,35.9563902 43.4132116,35.874337 L43.002053,33.801647 C42.9879134,33.7193886 43.0482587,33.6417809 43.1384609,33.6262183 L65.3942355,30.0018614 C65.4849611,29.9890414 65.5705573,30.0437548 65.5877219,30.1255386 L65.9979131,32.1991058 C66.012426,32.2826313 65.9497048,32.3610694 65.8576355,32.3745345 Z" id="Path" fill="#D2D4D8"></path>
            <path d="M86.8625527,28.570437 L67.6003037,31.9979851 C67.5104326,32.0118621 67.4256425,31.9526378 67.4086396,31.8641114 L67.0023115,29.6195895 C66.9872329,29.5303041 67.0474887,29.4456253 67.1374348,29.4296977 L86.3996838,26.0021495 C86.4896782,25.987747 86.5748032,26.0472052 86.5913479,26.1360233 L86.997676,28.3795956 C87.012789,28.469093 86.9526352,28.5540511 86.8625527,28.570437 L86.8625527,28.570437 Z" id="Path" fill="#D2D4D8"></path>
            <path d="M69.5606633,11.294935 L82.8291429,11.294935 C83.5567043,11.294935 84.1465093,11.88474 84.1465093,12.6123013 C84.1465093,13.3398627 83.5567043,13.9296677 82.8291429,13.9296677 L69.5606633,13.9296677 C68.8331019,13.9296677 68.2432969,13.3398627 68.2432969,12.6123013 C68.2432969,11.88474 68.8331019,11.294935 69.5606633,11.294935 Z" id="Rectangle" fill="#D2D4D8" transform="translate(76.194903, 12.612301) rotate(-10.180000) translate(-76.194903, -12.612301) "></path>
            <g id="Group" opacity="0.2" transform="translate(69.000000, 11.000000)" fill="#3D3D3D">
                <path d="M51.7402494,79.9839839 L0.24038571,63.2590668 C0.152414963,63.2305949 0.0794920891,63.1687422 0.0376629736,63.0871187 C-0.00416614186,63.0054953 -0.0114742006,62.910789 0.0173468561,62.8238389 L20.8186041,0.237488568 C20.8794446,0.0566531104 21.0764889,-0.0417928901 21.259875,0.017023752 L72.7597386,16.7419409 C72.9426854,16.8020791 73.0422808,16.9968495 72.9827775,17.1781191 L52.1786361,79.7616185 C52.1185848,79.9417435 51.9233062,80.0407958 51.7402494,79.9839839 L51.7402494,79.9839839 Z" id="Path"></path>
                <path d="M47.8486059,19.8065919 L40.3854567,32.5726451 L26.2638286,37.269876 C28.3792944,43.4828571 34.3923519,47.5676746 41.0184968,47.2930844 C47.6446417,47.0184942 53.2907018,42.4505179 54.8726374,36.084315 C56.4545729,29.7181121 53.5920277,23.084355 47.8486059,19.8065919 Z" id="Path"></path>
                <path d="M47.0641244,17.337766 C42.7635193,14.8817706 37.50725,14.7067779 33.0492089,16.8711788 L39.6057821,30.096217 L47.0641244,17.337766 Z" id="Path"></path>
                <path d="M31.3937222,18.1283985 C24.6660984,21.3716034 21.4269316,29.0530361 23.8325128,36.0592201 L37.9541409,31.3619891 L31.3937222,18.1283985 Z" id="Path"></path>
                <path d="M30.8495843,52.1255936 L12.3075568,46.1027229 C12.2698712,46.0911705 12.2384611,46.0651367 12.2203832,46.0304703 C12.2023053,45.9958039 12.1990755,45.9554118 12.2114194,45.9183687 L12.8468878,44.004506 C12.8589334,43.9662127 12.8862538,43.9344295 12.9225406,43.9164955 C12.9588274,43.8985615 13.0009431,43.8960273 13.0391627,43.9094781 L31.5811902,49.9313985 C31.6200949,49.9430699 31.6524319,49.9700422 31.6706143,50.0059874 C31.6887967,50.0419325 31.6912243,50.0836869 31.6773276,50.1214544 L31.0418592,52.0353171 C31.0285948,52.0725807 31.0008327,52.1030702 30.964734,52.1200192 C30.9286353,52.1369682 30.8871858,52.1389748 30.8495843,52.1255936 L30.8495843,52.1255936 Z" id="Path"></path>
                <path d="M39.1808546,59.4779052 L10.9164481,50.2982063 C10.8786921,50.2864449 10.8472738,50.2602275 10.8292098,50.2254092 C10.8111458,50.190591 10.8079408,50.1500722 10.8203107,50.1129019 L11.4557791,48.1990392 C11.4675868,48.1605834 11.4948741,48.1286197 11.5312389,48.1106471 C11.5676037,48.0926746 11.6098456,48.0902749 11.648054,48.1040113 L39.9124605,57.2837101 C39.9903928,57.3090836 40.0332295,57.3916512 40.0085979,57.4690145 L39.3721681,59.3828772 C39.3603381,59.4211024 39.3332039,59.4528806 39.2970692,59.4708292 C39.2609345,59.4887778 39.2189447,59.4913344 39.1808546,59.4779052 L39.1808546,59.4779052 Z" id="Path"></path>
                <path d="M28.2548349,61.2691818 L9.31575977,55.1161228 C9.23795654,55.0911683 9.1950478,55.0088861 9.21962233,54.9317686 L9.85605217,53.0179059 C9.8679631,52.9808077 9.89433431,52.9499278 9.92933419,52.9320948 C9.96433407,52.9142618 10.005079,52.9109451 10.0425588,52.922878 L28.9816339,59.075937 C29.0599344,59.1008836 29.1029685,59.1838317 29.0777713,59.2612415 L28.4413415,61.1751041 C28.4156932,61.2516288 28.332574,61.2935558 28.2548349,61.2691818 Z" id="Path"></path>
                <path d="M42.0441871,59.4952741 L50.9351429,59.4648094 C51.5686285,59.4626388 52.0839297,59.9744207 52.0861003,60.6079063 C52.0861093,60.6105388 52.0861093,60.6131713 52.0861002,60.6158037 C52.0838896,61.2549482 51.5662983,61.7725229 50.9271537,61.7747129 L42.0361979,61.8051776 C41.4027123,61.8073483 40.8874111,61.2955664 40.8852405,60.6620808 C40.8852315,60.6594483 40.8852315,60.6568158 40.8852406,60.6541833 C40.8874512,60.0150388 41.4050425,59.4974642 42.0441871,59.4952741 Z" id="Rectangle" transform="translate(46.485670, 60.634994) rotate(18.190000) translate(-46.485670, -60.634994) "></path>
                <path d="M33.6791759,53.7732078 L52.5725453,53.70847 C53.2060309,53.7062994 53.7213321,54.2180813 53.7235028,54.8515669 C53.7235118,54.8541993 53.7235117,54.8568318 53.7235026,54.8594643 C53.7212921,55.4986088 53.2037008,56.0161835 52.5645562,56.0183735 L33.6711868,56.0831113 C33.0377012,56.0852819 32.5224,55.5735 32.5202293,54.9400144 C32.5202203,54.937382 32.5202204,54.9347495 32.5202295,54.932117 C32.52244,54.2929725 33.0400313,53.7753978 33.6791759,53.7732078 Z" id="Rectangle" transform="translate(43.121866, 54.895791) rotate(18.190000) translate(-43.121866, -54.895791) "></path>
            </g>
            <g id="Path">
                <use fill="black" fill-opacity="1" filter="url(#filter-8)" xlink:href="#path-7"></use>
                <use fill="#FFFFFF" xlink:href="#path-7"></use>
            </g>
            <path d="M118.810968,24 L111.615691,36.9973808 L98,41.7806956 C100.039488,48.1068952 105.83716,52.266255 112.226039,51.9867262 C118.614918,51.7071974 124.058803,47.0559924 125.583976,40.5738303 C127.109148,34.0916682 124.34888,27.337179 118.810968,24 Z" id="Path" fill="#D2D4D8"></path>
            <path d="M118,22.1467627 C117.047683,21.5962709 116.041602,21.1451044 114.997531,20.8003357 C111.042979,19.4940936 106.735188,19.7956437 103,21.640176 L110.017424,36 L118,22.1467627 Z" id="Path" fill="#6977E9" opacity="0.490781512"></path>
            <path d="M102.961775,23 C95.7434122,26.2550767 92.2677178,33.9665257 94.8488377,41 L110,36.2846468 L102.961775,23 Z" id="Path" fill="#D2D4D8"></path>
            <path d="M103.140764,55.9914408 L84.1075453,50.1436485 C84.0677787,50.1320862 84.0347726,50.1058619 84.0161486,50.0710311 C83.9975246,50.0362003 83.9948929,49.9957743 84.0088611,49.9590882 L84.6621504,48.1005662 C84.6745151,48.0633802 84.7025593,48.032516 84.7398073,48.0151006 C84.7770553,47.9976852 84.8202867,47.9952243 84.8595188,48.0082861 L103.892738,53.8560784 C103.932339,53.8678632 103.965162,53.8941187 103.983747,53.9288769 C104.002332,53.9636351 104.0051,54.0039431 103.991422,54.0406387 L103.338133,55.8991607 C103.326012,55.9365044 103.298002,55.9675439 103.260674,55.9849968 C103.223346,56.0024497 103.179985,56.0047799 103.140764,55.9914408 Z" id="Path" fill="#D4E8E8"></path>
            <path d="M111.169788,63.9919812 L83.1040335,55.13069 C83.0655654,55.1191977 83.0336371,55.0931319 83.0156213,55.0585116 C82.9976054,55.0238913 82.9950596,54.9837098 83.0085718,54.9472454 L83.6405286,53.0999583 C83.6524894,53.0629971 83.6796179,53.0323195 83.7156496,53.0150093 C83.7516813,52.9976992 83.7935011,52.9952531 83.8314521,53.008236 L111.897206,61.8695273 C111.934627,61.8806778 111.965816,61.905806 111.983767,61.9392664 C112.001718,61.9727269 112.004925,62.0117139 111.992668,62.0474685 L111.361666,63.8947556 C111.350975,63.9329481 111.324209,63.9651355 111.2878,63.9835844 C111.251391,64.0020332 111.208628,64.0050759 111.169788,63.9919812 Z" id="Path" fill="#D4E8E8"></path>
            <path d="M99.1599113,65.9915694 L80.1041589,60.1062428 C80.0662412,60.0951931 80.0346376,60.070292 80.0164483,60.037134 C79.998259,60.0039761 79.9950093,59.9653415 80.0074292,59.9299102 L80.6468126,58.0993236 C80.658693,58.0625412 80.6861484,58.0319682 80.7227372,58.0147777 C80.7593261,57.9975871 80.8018282,57.9952919 80.840272,58.0084306 L99.8960243,63.8928483 C99.9748072,63.9167095 100.018106,63.9960483 99.992754,64.0700898 L99.3533707,65.9006764 C99.3414902,65.9374588 99.3140349,65.9680318 99.277446,65.9852223 C99.2408572,66.0024129 99.1983551,66.0047081 99.1599113,65.9915694 Z" id="Path" fill="#D4E8E8"></path>
            <path d="M113.508368,63.9780482 L122.354021,63.9780482 C122.996158,63.9780482 123.516713,64.4986031 123.516713,65.1407401 C123.516713,65.7828772 122.996158,66.3034321 122.354021,66.3034321 L113.508368,66.3034321 C112.866231,66.3034321 112.345676,65.7828772 112.345676,65.1407401 C112.345676,64.4986031 112.866231,63.9780482 113.508368,63.9780482 Z" id="Rectangle" fill="#D4E8E8" transform="translate(117.931194, 65.140740) rotate(18.190000) translate(-117.931194, -65.140740) "></path>
            <path d="M124.16243,62.9926109 L104.104452,56.2850131 C104.066367,56.2728045 104.034676,56.2455903 104.016455,56.2094481 C103.998234,56.173306 103.995001,56.1312465 104.007478,56.0926629 L104.648472,54.1060303 C104.67393,54.0256906 104.758576,53.9815358 104.83757,54.0073891 L124.895548,60.7149869 C124.933633,60.7271955 124.965324,60.7544097 124.983545,60.7905519 C125.001766,60.826694 125.004999,60.8687535 124.992522,60.9073371 L124.351528,62.8939697 C124.32607,62.9743094 124.241424,63.0184642 124.16243,62.9926109 Z" id="Path" fill="#D4E8E8"></path>
            <g id="Path">
                <use fill="black" fill-opacity="1" filter="url(#filter-12)" xlink:href="#path-11"></use>
                <use fill="url(#linearGradient-9)" xlink:href="#path-11"></use>
                <use fill="url(#linearGradient-10)" xlink:href="#path-11"></use>
            </g>
            <rect id="Rectangle" fill="#EFEFEF" x="48" y="51" width="72" height="64" rx="2.55"></rect>
            <rect id="Rectangle" fill="#FFFFFF" x="48" y="52" width="72" height="64" rx="2.55"></rect>
            <path d="M124,54 L124,108.023087 L123.454129,112.689629 C123.272031,114.254527 122.17844,115.558048 120.67689,116 L47.9821801,116 C46.3388207,116 45,114.71617 45,113.125611 L45,63.4874143 L57.7858338,63.4874143 C59.3501287,63.4881279 60.7649232,62.551542 61.3847525,61.1049507 L63.4054333,56.3901805 C64.0183831,54.940246 65.4320554,53.9993689 66.9966906,54 L124,54 Z" id="Path" fill="#3D3D3D" opacity="0.2"></path>
            <path d="M124.681113,113.52643 C124.450771,115.507242 122.792209,117 120.821769,117 L48.0805846,117 C46.1099817,117 44.4511759,115.507457 44.2212401,113.52643 L39.0266631,68.8548416 C38.8969347,67.7392522 39.2446094,66.6207468 39.9820322,65.7813205 C40.719455,64.9418943 41.7762599,64.4616464 42.8860077,64.4616561 L59.517017,64.4616561 C61.06926,64.4617739 62.4726704,63.5268515 63.0865068,62.0837373 L65.0888803,57.3779209 C65.7027167,55.9348067 67.1061271,55 68.6583701,55 L127.111141,55 C128.221386,54.999168 129.278963,55.4790594 130.017021,56.3185878 C130.755078,57.1581162 131.103124,58.2770986 130.973337,59.3931877 L124.681113,113.52643 Z" id="Path" fill="url(#linearGradient-13)"></path>
        </g>
    </g>
</svg>